
<svg xmlns="http://www.w3.org/2000/svg" xmlns:xlink="http://www.w3.org/1999/xlink" version="1.1" width="126.4" height="23.6" viewBox="0 0 126.4 23.6">
			
			<g transform="scale(.3) translate(1, 1)">
				<defs id="SvgjsDefs2505"/><g id="SvgjsG2506" featureKey="symbolFeature-0" transform="matrix(0.7891414141414143,0,0,0.7891414141414143,-13.415404040404042,-13.415404040404042)" fill="#000"><title xmlns="http://www.w3.org/2000/svg">Comments Icon</title><desc xmlns="http://www.w3.org/2000/svg">Created with Sketch.</desc><g xmlns="http://www.w3.org/2000/svg" stroke="none" stroke-width="1" fill-rule="evenodd" xmlns:sketch="http://www.bohemiancoding.com/sketch/ns" sketch:type="MSPage"><g sketch:type="MSArtboardGroup" stroke="#ffffff"><path d="M50,83 C68.2253967,83 83,68.2253967 83,50 C83,31.7746033 68.2253967,17 50,17 C31.7746033,17 17,31.7746033 17,50 C17,68.2253967 31.7746033,83 50,83 Z M35.5625,35.5625 C35.5625,33.2843254 37.405132,31.4375 39.6867521,31.4375 L62.3757479,31.4375 C64.6535094,31.4375 66.5,33.288961 66.5,35.5625 C66.5,37.8406746 64.657368,39.6875 62.3757479,39.6875 L39.6867521,39.6875 C37.4089906,39.6875 35.5625,37.836039 35.5625,35.5625 Z M35.5625,64.4375 C35.5625,62.1593254 37.405132,60.3125 39.6867521,60.3125 L62.3757479,60.3125 C64.6535094,60.3125 66.5,62.163961 66.5,64.4375 C66.5,66.7156746 64.657368,68.5625 62.3757479,68.5625 L39.6867521,68.5625 C37.4089906,68.5625 35.5625,66.711039 35.5625,64.4375 Z M27.3125,50 C27.3125,47.7218254 29.157547,45.875 31.4392825,45.875 L70.6232175,45.875 C72.9023766,45.875 74.75,47.726461 74.75,50 C74.75,52.2781746 72.904953,54.125 70.6232175,54.125 L31.4392825,54.125 C29.1601234,54.125 27.3125,52.273539 27.3125,50 Z" sketch:type="MSShapeGroup"/></g></g></g><g id="SvgjsG2507" featureKey="nameFeature-0" transform="matrix(1.1391735973615846,0,0,1.1391735973615846,71.17979361930689,-3.3966817657083794)" fill="#000"><path d="M22.44 34.480000000000004 c-0.56 1.12 -0.96 1.76 -1.32 2.2 c-1.24 1.6 -4.2 4.12 -9.36 4.12 c-2.36 0 -3.8 -0.48 -4.72 -0.88 c-5.92 -2.48 -6.32 -8.52 -6.32 -10.4 c0 -0.68 0.08 -2.36 0.68 -4.16 c2.28 -6.72 8.8 -7 10.88 -7 c3.64 0 5.8 1.12 7.08 2 c0.32 0.24 1.24 0.92 2 1.84 c0.44 0.56 0.68 0.96 1.04 1.56 l-6.24 3.52 c-0.16 -0.52 -0.32 -0.92 -0.4 -1.08 c-0.28 -0.6 -1.16 -2.04 -3.16 -2.04 c-0.88 0 -1.48 0.32 -1.76 0.52 c-2 1.36 -1.96 4.76 -1.96 5.08 c0 0.24 -0.04 2.36 0.96 3.6 c0.16 0.24 0.48 0.56 1.16 0.84 c0.24 0.08 0.76 0.32 1.48 0.32 c2.68 -0.04 3.48 -3.04 3.64 -3.52 z M48.040000000000006 29.68 c0 1.12 -0.2 4.68 -2.68 7.44 c-1.44 1.6 -4.52 3.68 -9.68 3.68 c-1.2 0 -4.92 -0.04 -7.96 -2.44 c-1.52 -1.2 -3.84 -3.84 -3.84 -8.56 c0 -2.88 0.88 -5.72 2.84 -7.84 c1.4 -1.52 4.36 -3.6 9.4 -3.56 c1.08 0 5.36 0.12 8.44 2.8 c2.32 2.04 3.48 5.4 3.48 8.48 z M39.72 29.48 c0 -3.12 -1 -4.56 -2.48 -5.08 c-0.6 -0.2 -1.12 -0.2 -1.36 -0.2 c-1.44 0.04 -2.24 0.76 -2.6 1.16 c-0.64 0.68 -1.2 2.08 -1.2 4.2 c0 2.04 0.52 3.44 1.04 4.16 c0.32 0.44 0.76 0.8 1.24 1 c0.24 0.12 0.84 0.28 1.56 0.28 c0.96 0 1.84 -0.28 2.48 -0.92 c0.72 -0.72 1.32 -2.28 1.32 -4.6 z M87.12 40 l-8.24 0 l0 -10.84 c0 -0.8 0.24 -3.6 -2.88 -3.6 c-0.64 0 -2.36 0.16 -2.88 2 c-0.12 0.48 -0.12 0.88 -0.12 1.4 l0 11.04 l-8.24 0 l0 -11.2 c0 -0.48 0 -0.8 -0.12 -1.28 c-0.48 -1.76 -2.12 -1.96 -2.76 -1.96 c-0.56 0 -2.28 0.2 -2.84 1.92 c-0.08 0.24 -0.2 0.64 -0.2 1.28 l0 11.24 l-8.28 0 l0 -20.72 l7.96 0 l0 2.96 c0.48 -0.84 0.8 -1.24 1.12 -1.56 c0.84 -0.8 2.56 -1.88 5.4 -1.88 c0.72 0 4.16 0 6.16 2.24 c0.32 0.32 0.6 0.8 1.04 1.6 c0.36 -0.84 0.8 -1.28 1.08 -1.56 c0.96 -1 2.68 -2.32 6.04 -2.28 c0.52 0 1.48 -0.04 2.72 0.32 c1.04 0.28 3.64 1.16 4.64 4.2 c0.4 1.2 0.4 2.32 0.4 3.6 l0 13.08 z M127.12 40 l-8.24 0 l0 -10.84 c0 -0.8 0.24 -3.6 -2.88 -3.6 c-0.64 0 -2.36 0.16 -2.88 2 c-0.12 0.48 -0.12 0.88 -0.12 1.4 l0 11.04 l-8.24 0 l0 -11.2 c0 -0.48 0 -0.8 -0.12 -1.28 c-0.48 -1.76 -2.12 -1.96 -2.76 -1.96 c-0.56 0 -2.28 0.2 -2.84 1.92 c-0.08 0.24 -0.2 0.64 -0.2 1.28 l0 11.24 l-8.28 0 l0 -20.72 l7.96 0 l0 2.96 c0.48 -0.84 0.8 -1.24 1.12 -1.56 c0.84 -0.8 2.56 -1.88 5.4 -1.88 c0.72 0 4.16 0 6.16 2.24 c0.32 0.32 0.6 0.8 1.04 1.6 c0.36 -0.84 0.8 -1.28 1.08 -1.56 c0.96 -1 2.68 -2.32 6.04 -2.28 c0.52 0 1.48 -0.04 2.72 0.32 c1.04 0.28 3.64 1.16 4.64 4.2 c0.4 1.2 0.4 2.32 0.4 3.6 l0 13.08 z M152.44000000000003 31.119999999999997 l-14.44 0 s0 0.96 0.2 1.6 c0.28 0.8 1.08 2.32 3.28 2.28 c1.28 0 1.96 -0.44 2.36 -0.8 c0.84 -0.68 1.24 -1.6 1.4 -1.88 l6.76 2.84 c-0.2 0.32 -0.44 0.76 -1 1.4 c-1.44 1.68 -3.08 2.6 -3.8 2.96 c-1 0.48 -3.16 1.32 -6.12 1.32 c-1.72 0 -3.36 -0.24 -4.92 -0.88 c-4.28 -1.76 -6.56 -5.92 -6.56 -10.44 c0 -4.28 1.96 -6.92 3.16 -8.08 c2.96 -2.84 7.08 -3.04 8.24 -3.04 c1.4 0 5.64 0.2 8.64 3.44 c1 1.08 1.76 2.44 2.2 3.84 c0.56 1.8 0.6 3.56 0.6 5.44 z M144.08 26.759999999999998 c-0.04 -0.24 -0.04 -0.64 -0.2 -1.16 c-0.56 -1.72 -2.08 -1.96 -2.72 -1.96 c-0.64 0.04 -1.04 0.2 -1.28 0.32 c-1.52 0.68 -1.72 2.36 -1.8 2.8 l6 0 z M176.96 40 l-8.24 0 l0 -11.32 c0 -0.48 0 -0.92 -0.12 -1.4 c-0.2 -0.72 -0.8 -1.72 -2.68 -1.72 c-3.04 0 -3 2.52 -3 3.4 l0 11.04 l-8.2 0 l0 -20.72 l7.76 0 l0 2.76 c0.52 -0.76 0.6 -0.84 1 -1.24 c1.52 -1.52 3.72 -2.08 5.84 -2.08 c0.76 0 3.32 0.04 5.28 1.72 c1.08 0.88 1.76 2.24 2.08 3.6 c0.16 0.68 0.28 1.4 0.28 2.88 l0 13.08 z M193.68 39.84 c-0.68 0.08 -2.96 0.44 -5.2 0.44 c-4.36 0 -6 -1.68 -6.6 -3.76 c-0.2 -0.76 -0.24 -1.52 -0.24 -2.24 l0.12 -10.04 l-2.84 0 l0 -4.48 l2.88 0 l0.08 -6.52 l8.28 0 l-0.04 6.52 l3.52 0 l0 4.48 l-3.6 0 l-0.12 7.96 c0 0.84 0.12 2.16 2.28 2.16 c0.48 0 0.68 0 1.48 -0.16 l0 5.64 z M214.84000000000003 33.08 c0 1.2 -0.24 2.28 -0.84 3.36 c-2.36 4.28 -7.88 4.36 -9 4.36 c-3.08 0 -6.24 -0.88 -8.84 -2.52 c-0.8 -0.48 -1.52 -1.08 -2.28 -1.64 l4.64 -4.2 c0.4 0.36 0.76 0.68 1.16 1 c0.68 0.48 2.72 1.76 5.24 1.76 c0.2 0 0.84 0 1.36 -0.24 c0.6 -0.28 0.8 -0.8 0.8 -1.08 c0 -0.24 -0.12 -0.44 -0.16 -0.48 c-0.52 -0.8 -1.44 -0.72 -3 -1 c-0.48 -0.08 -2.44 -0.48 -4.08 -1.04 c-1.92 -0.64 -3.4 -1.4 -4.32 -3.36 c-0.36 -0.8 -0.56 -1.6 -0.56 -2.48 c0 -1.8 0.84 -3.16 1.2 -3.68 c1.2 -1.68 3.56 -3.4 8.2 -3.4 c2.48 0 5.64 0.52 7.88 1.68 c0.76 0.4 1.32 0.8 2 1.32 l-4.44 4.04 c-0.6 -0.4 -2.8 -2 -5.32 -2 c-0.16 0 -0.72 0 -1.16 0.2 c-0.48 0.24 -0.6 0.68 -0.6 0.88 c0 0.52 0.44 0.76 0.56 0.8 c0.36 0.2 1.16 0.36 2.16 0.6 c3.04 0.76 4.8 1.04 6.12 1.72 c1.04 0.52 3.28 2.12 3.28 5.4 z M224.24 40 l-7.28 0 l0 -7.52 l7.28 0 l0 7.52 z M235.52 17.24 l-8.24 0 l0 -5.48 l8.24 0 l0 5.48 z M235.52 40 l-8.24 0 l0 -20.72 l8.24 0 l0 20.72 z M262.24 29.68 c0 1.12 -0.2 4.68 -2.68 7.44 c-1.44 1.6 -4.52 3.68 -9.68 3.68 c-1.2 0 -4.92 -0.04 -7.96 -2.44 c-1.52 -1.2 -3.84 -3.84 -3.84 -8.56 c0 -2.88 0.88 -5.72 2.84 -7.84 c1.4 -1.52 4.36 -3.6 9.4 -3.56 c1.08 0 5.36 0.12 8.44 2.8 c2.32 2.04 3.48 5.4 3.48 8.48 z M253.92000000000002 29.48 c0 -3.12 -1 -4.56 -2.48 -5.08 c-0.6 -0.2 -1.12 -0.2 -1.36 -0.2 c-1.44 0.04 -2.24 0.76 -2.6 1.16 c-0.64 0.68 -1.2 2.08 -1.2 4.2 c0 2.04 0.52 3.44 1.04 4.16 c0.32 0.44 0.76 0.8 1.24 1 c0.24 0.12 0.84 0.28 1.56 0.28 c0.96 0 1.84 -0.28 2.48 -0.92 c0.72 -0.72 1.32 -2.28 1.32 -4.6 z"/></g>
			</g>
		</svg>
	